<svg width="50" height="50" viewBox="0 0 50 50" fill="none" xmlns="http://www.w3.org/2000/svg">
<path d="M5.9522 23.8094H17.8572C19.4352 23.8078 20.9483 23.18 22.064 22.064C23.1801 20.9483 23.8079 19.4352 23.8094 17.8572V5.9522C23.8078 4.37415 23.18 2.86151 22.064 1.74539C20.9483 0.629689 19.4352 0.00193876 17.8572 0H5.9522C4.37415 0.00199294 2.86151 0.629781 1.74539 1.74539C0.629688 2.86151 0.00193876 4.37415 0 5.9522V17.8572C0.00199294 19.4352 0.62978 20.9483 1.74539 22.064C2.86151 23.1801 4.37415 23.8079 5.9522 23.8094ZM2.3808 5.9524C2.3808 5.00535 2.75707 4.09691 3.42711 3.42732C4.09675 2.75728 5.00516 2.381 5.9522 2.381H17.8572C18.8043 2.381 19.7127 2.75727 20.3827 3.42732C21.0523 4.09696 21.4286 5.00537 21.4286 5.9524V17.8574C21.4286 18.8045 21.0523 19.7129 20.3827 20.3829C19.7127 21.0525 18.8042 21.4288 17.8572 21.4288H5.9522C5.00514 21.4288 4.0967 21.0525 3.42711 20.3829C2.75708 19.7129 2.3808 18.8044 2.3808 17.8574V5.9524Z" fill="white"/>
<path d="M44.0478 0.000366211H32.1428C30.5647 0.00235915 29.0517 0.630147 27.936 1.74576C26.8199 2.86187 26.1921 4.37451 26.1906 5.95256V17.8576C26.1922 19.4356 26.82 20.9487 27.936 22.0644C29.0517 23.1805 30.5647 23.8082 32.1428 23.8098H44.0478C45.6258 23.8082 47.1385 23.1804 48.2546 22.0644C49.3703 20.9487 49.9981 19.4356 50 17.8576V5.95256C49.998 4.37451 49.3702 2.86187 48.2546 1.74576C47.1385 0.630055 45.6258 0.00230497 44.0478 0.000366211ZM47.6192 17.8574C47.6192 18.8044 47.2429 19.7129 46.5729 20.3829C45.9032 21.0525 44.9948 21.4288 44.0478 21.4288H32.1428C31.1957 21.4288 30.2873 21.0525 29.6173 20.3829C28.9477 19.7128 28.5714 18.8044 28.5714 17.8574V5.95236C28.5714 5.0053 28.9477 4.09686 29.6173 3.42728C30.2873 2.75724 31.1958 2.38096 32.1428 2.38096H44.0478C44.9949 2.38096 45.9033 2.75723 46.5729 3.42728C47.2429 4.09691 47.6192 5.00532 47.6192 5.95236V17.8574Z" fill="white"/>
<path d="M5.9522 49.9999H17.8572C19.4352 49.998 20.9483 49.3702 22.064 48.2546C23.1801 47.1384 23.8079 45.6258 23.8094 44.0478V32.1427C23.8078 30.5647 23.18 29.0517 22.064 27.9359C20.9483 26.8198 19.4352 26.1921 17.8572 26.1906H5.9522C4.37415 26.1921 2.86151 26.8199 1.74539 27.9359C0.629688 29.0517 0.00193876 30.5647 0 32.1427V44.0478C0.00199294 45.6258 0.62978 47.1384 1.74539 48.2546C2.86151 49.3703 4.37415 49.998 5.9522 49.9999ZM2.3808 32.143C2.3808 31.1959 2.75707 30.2875 3.42711 29.6175C4.09675 28.9478 5.00516 28.5716 5.9522 28.5716H17.8572C18.8043 28.5716 19.7127 28.9478 20.3827 29.6175C21.0523 30.2875 21.4286 31.1959 21.4286 32.143V44.048C21.4286 44.995 21.0523 45.9034 20.3827 46.573C19.7127 47.2431 18.8042 47.6194 17.8572 47.6194H5.9522C5.00514 47.6194 4.0967 47.2431 3.42711 46.573C2.75708 45.9034 2.3808 44.995 2.3808 44.048V32.143Z" fill="white"/>
<path d="M44.0478 26.191H32.1428C30.5647 26.1926 29.0517 26.8204 27.936 27.9364C26.8199 29.0521 26.1921 30.5652 26.1906 32.1432V44.0482C26.1922 45.6263 26.82 47.1389 27.936 48.255C29.0517 49.3707 30.5647 49.9985 32.1428 50.0004H44.0478C45.6258 49.9984 47.1385 49.3707 48.2546 48.255C49.3703 47.1389 49.9981 45.6263 50 44.0482V32.1432C49.998 30.5652 49.3702 29.0521 48.2546 27.9364C47.1385 26.8203 45.6258 26.1926 44.0478 26.191ZM47.6192 44.048C47.6192 44.9951 47.2429 45.9035 46.5729 46.5731C45.9032 47.2431 44.9948 47.6194 44.0478 47.6194H32.1428C31.1957 47.6194 30.2873 47.2432 29.6173 46.5731C28.9477 45.9035 28.5714 44.9951 28.5714 44.048V32.143C28.5714 31.196 28.9477 30.2875 29.6173 29.6175C30.2873 28.9479 31.1958 28.5716 32.1428 28.5716H44.0478C44.9949 28.5716 45.9033 28.9479 46.5729 29.6175C47.2429 30.2876 47.6192 31.196 47.6192 32.143V44.048Z" fill="white"/>
</svg>
