<svg width="50" height="50" viewBox="0 0 50 50" fill="none" xmlns="http://www.w3.org/2000/svg">
<path d="M5.9522 0H17.8572C21.1444 0 23.8094 3.28722 23.8094 5.9522V17.8572C23.8094 21.1444 21.1444 23.8094 17.8572 23.8094H5.9522C2.66498 23.8094 0 20.5222 0 17.8572V5.9522C0 2.66498 2.66498 0 5.9522 0Z" fill="#FFD026"/>
<path d="M32.1428 0H44.0478C47.335 0 50 3.28722 50 5.9522V17.8572C50 21.1444 47.335 23.8094 44.0478 23.8094H32.1428C28.8556 23.8094 26.1906 20.5222 26.1906 17.8572V5.9522C26.1906 2.66498 28.8556 0 32.1428 0Z" fill="#FFD026"/>
<path d="M5.9522 26.1906H17.8572C21.1444 26.1906 23.8094 29.4778 23.8094 32.1428V44.0478C23.8094 47.335 21.1444 50 17.8572 50H5.9522C2.66498 50 0 46.7128 0 44.0478V32.1428C0 28.8556 2.66498 26.1906 5.9522 26.1906Z" fill="#FFD026"/>
<path d="M32.1428 26.1906H44.0478C47.335 26.1906 50 29.4778 50 32.1428V44.0478C50 47.335 47.335 50 44.0478 50H32.1428C28.8556 50 26.1906 46.7128 26.1906 44.0478V32.1428C26.1906 28.8556 28.8556 26.1906 32.1428 26.1906Z" fill="#FFD026"/>
</svg>
