<svg width="24" height="22" viewBox="0 0 24 22" fill="none" xmlns="http://www.w3.org/2000/svg">
<path d="M22.4615 3.30747H1.53752C1.12949 3.30747 0.738164 3.14538 0.44964 2.85685C0.161115 2.56833 -0.000976562 2.177 -0.000976562 1.76897C-0.000976563 1.36093 0.161115 0.969609 0.44964 0.681079C0.738164 0.392559 1.12949 0.230469 1.53752 0.230469H22.4615C22.8696 0.230469 23.2609 0.392559 23.5494 0.681079C23.8379 0.969609 24 1.36093 24 1.76897C24 2.177 23.8379 2.56833 23.5494 2.85685C23.2609 3.14538 22.8696 3.30747 22.4615 3.30747Z" fill="#333365"/>
<path d="M13.8455 12.5399H1.53752C1.12949 12.5399 0.738164 12.3778 0.44964 12.0893C0.161115 11.8007 -0.000976562 11.4094 -0.000976562 11.0014C-0.000976563 10.5934 0.161115 10.202 0.44964 9.91349C0.738164 9.62499 1.12949 9.46289 1.53752 9.46289H13.8455C14.2536 9.46289 14.6449 9.62499 14.9334 9.91349C15.2219 10.202 15.384 10.5934 15.384 11.0014C15.384 11.4094 15.2219 11.8007 14.9334 12.0893C14.6449 12.3778 14.2536 12.5399 13.8455 12.5399Z" fill="#333365"/>
<path d="M22.4624 12.5379H20.0004C19.7984 12.5379 19.5983 12.4981 19.4117 12.4208C19.225 12.3435 19.0554 12.2302 18.9125 12.0873C18.7697 11.9445 18.6563 11.7749 18.579 11.5882C18.5017 11.4015 18.4619 11.2015 18.4619 10.9994C18.4619 10.7974 18.5017 10.5973 18.579 10.4107C18.6563 10.224 18.7697 10.0544 18.9125 9.91164C19.0554 9.76874 19.225 9.65544 19.4117 9.57804C19.5983 9.50074 19.7984 9.46094 20.0004 9.46094H22.4624C22.6645 9.46094 22.8645 9.50074 23.0512 9.57804C23.2378 9.65544 23.4074 9.76874 23.5503 9.91164C23.6932 10.0544 23.8065 10.224 23.8838 10.4107C23.9611 10.5973 24.0009 10.7974 24.0009 10.9994C24.0009 11.2015 23.9611 11.4015 23.8838 11.5882C23.8065 11.7749 23.6932 11.9445 23.5503 12.0873C23.4074 12.2302 23.2378 12.3435 23.0512 12.4208C22.8645 12.4981 22.6645 12.5379 22.4624 12.5379Z" fill="#707093"/>
<path d="M22.462 21.7694H1.53802C1.12986 21.7694 0.738405 21.6073 0.449786 21.3186C0.161168 21.03 -0.000976562 20.6386 -0.000976562 20.2304C-0.000976562 19.8222 0.161168 19.4308 0.449786 19.1422C0.738405 18.8536 1.12986 18.6914 1.53802 18.6914H22.462C22.8701 18.6914 23.2614 18.8535 23.5499 19.142C23.8384 19.4305 24.0005 19.8219 24.0005 20.2299C24.0005 20.6379 23.8384 21.0293 23.5499 21.3178C23.2614 21.6063 22.8701 21.7694 22.462 21.7694Z" fill="#333365"/>
</svg>
