<svg width="50" height="49" viewBox="0 0 50 49" fill="none" xmlns="http://www.w3.org/2000/svg">
<path d="M0 43.5277C0 44.8536 0.526513 46.1255 1.46443 47.063C2.40194 48.0009 3.67383 48.5274 4.99973 48.5274H11.6749C13.0012 48.5274 14.2727 48.0009 15.2106 47.063C16.1481 46.1255 16.675 44.8536 16.675 43.5277V37.3527C16.675 34.3782 18.2617 31.6298 20.8373 30.1427C23.4134 28.6557 26.5866 28.6557 29.1627 30.1427C31.7383 31.6298 33.325 34.3782 33.325 37.3527V43.5277C33.325 44.8536 33.8519 46.1255 34.7894 47.063C35.7273 48.0009 36.9988 48.5274 38.3251 48.5274H45.0003C46.3262 48.5274 47.5981 48.0009 48.5356 47.063C49.4735 46.1255 50 44.8536 50 43.5277V19.1526C50.0013 16.6394 48.7432 14.2931 46.6501 12.9023L29.1504 1.25262V1.25304C27.9204 0.436072 26.4768 0 25.0003 0C23.5237 0 22.0802 0.436105 20.8502 1.25304L3.35048 12.9027V12.9023C1.25743 14.293 -0.000642336 16.6394 0.000536239 19.1526L0 43.5277Z" fill="#BDBDBD"/>
</svg>
