<?xml version="1.0" encoding="UTF-8"?>
<svg width="700pt" height="700pt" version="1.1" viewBox="0 0 700 700" xmlns="http://www.w3.org/2000/svg">
 <path d="m568.87 229.6c10.195-5.7969 17.605-15.48 20.531-26.836 3.1328-11.414 1.5352-23.609-4.4336-33.832l-21.234-37.102h0.003906c-5.9375-10.152-15.648-17.543-27.016-20.559-11.367-3.0156-23.465-1.4141-33.652 4.4609l-7.6992 4.4336c-3.2422 1.8945-7.3125 1.6172-10.266-0.70312-19.312-16.332-41.457-28.988-65.336-37.332-3.4727-1.4375-5.7031-4.8711-5.5977-8.6328 0-11.758-4.6719-23.035-12.984-31.348-8.3164-8.3164-19.594-12.984-31.352-12.984h-39.668 0.003907c-11.758 0-23.035 4.668-31.352 12.984-8.3125 8.3125-12.984 19.59-12.984 31.348 0.10547 3.7617-2.125 7.1953-5.5977 8.6328-23.879 8.3438-46.023 21-65.336 37.332-2.9531 2.3203-7.0234 2.5977-10.266 0.70312l-7.6992-4.4336c-10.191-5.8633-22.285-7.457-33.648-4.4414-11.363 3.0156-21.074 10.398-27.02 20.539l-21.23 37.102c-5.9688 10.223-7.5664 22.418-4.4336 33.832 2.9258 11.355 10.336 21.039 20.531 26.836l7.6992 4.4336c3.1172 1.7109 4.9414 5.0859 4.668 8.6328-4.668 24.668-4.668 49.996 0 74.664 0.27344 3.5469-1.5508 6.9219-4.668 8.6328l-7.6992 4.4336c-10.195 5.7969-17.605 15.48-20.531 26.836-3.1328 11.414-1.5352 23.609 4.4336 33.832l21.234 37.102h-0.003906c5.9453 10.141 15.656 17.523 27.02 20.539 11.363 3.0156 23.457 1.4219 33.648-4.4414l7.6992-4.4336c3.2422-1.8945 7.3125-1.6172 10.266 0.70312 19.312 16.332 41.457 28.988 65.336 37.332 3.4727 1.4375 5.7031 4.8711 5.5977 8.6328 0 11.758 4.6719 23.035 12.984 31.348 8.3164 8.3164 19.594 12.984 31.352 12.984h39.668-0.003907c11.758 0 23.035-4.668 31.352-12.984 8.3125-8.3125 12.984-19.59 12.984-31.348-0.10547-3.7617 2.125-7.1953 5.5977-8.6328 23.879-8.3438 46.023-21 65.336-37.332 2.9531-2.3203 7.0234-2.5977 10.266-0.70312l7.6992 4.4336c10.188 5.875 22.285 7.4766 33.652 4.4609 11.367-3.0156 21.078-10.406 27.016-20.559l21.234-37.102h-0.003906c5.9688-10.223 7.5664-22.418 4.4336-33.832-2.9258-11.355-10.336-21.039-20.531-26.836l-7.6992-4.4336c-3.1172-1.7109-4.9414-5.0859-4.668-8.6328 4.668-24.668 4.668-49.996 0-74.664-0.27344-3.5469 1.5508-6.9219 4.668-8.6328zm-218.87 167.07c-30.941 0-60.617-12.293-82.496-34.172s-34.172-51.555-34.172-82.496 12.293-60.617 34.172-82.496 51.555-34.172 82.496-34.172 60.617 12.293 82.496 34.172 34.172 51.555 34.172 82.496-12.293 60.617-34.172 82.496-51.555 34.172-82.496 34.172z"/>
</svg>
