<?xml version="1.0" encoding="UTF-8"?>
<svg width="700pt" height="700pt" version="1.1" viewBox="0 0 700 700" xmlns="http://www.w3.org/2000/svg">
 <path d="m116.67 466.67c0 12.375 4.9141 24.246 13.668 32.996 8.75 8.7539 20.621 13.668 32.996 13.668h62.301c12.379 0 24.246-4.9141 33-13.668 8.75-8.75 13.668-20.621 13.668-32.996v-57.633c0-27.762 14.809-53.414 38.848-67.293 24.043-13.879 53.66-13.879 77.703 0 24.039 13.879 38.848 39.531 38.848 67.293v57.633c0 12.375 4.918 24.246 13.668 32.996 8.7539 8.7539 20.621 13.668 33 13.668h62.301c12.375 0 24.246-4.9141 32.996-13.668 8.7539-8.75 13.668-20.621 13.668-32.996v-227.5c0.011719-23.457-11.73-45.355-31.266-58.336l-163.33-108.73v0.003906c-11.48-7.625-24.953-11.695-38.734-11.695s-27.254 4.0703-38.734 11.695l-163.33 108.73v-0.003907c-19.535 12.98-31.277 34.879-31.266 58.336z"/>
</svg>
