<svg width="56" height="50" viewBox="0 0 56 50" fill="none" xmlns="http://www.w3.org/2000/svg">
<g clip-path="url(#clip0_220_11)">
<path d="M22.972 13.2127C22.718 13.4635 22.5163 13.7623 22.3787 14.0918C22.2412 14.4212 22.1703 14.7746 22.1703 15.1315C22.1703 15.4885 22.2412 15.8419 22.3787 16.1713C22.5163 16.5008 22.718 16.7996 22.972 17.0504L28.1803 22.2588H2.96096C1.45328 22.2588 0.219727 23.4923 0.219727 25C0.219727 26.5076 1.45328 27.7412 2.96096 27.7412H28.1803L22.972 32.9496C22.718 33.2004 22.5163 33.4992 22.3787 33.8287C22.2412 34.158 22.1703 34.5114 22.1703 34.8684C22.1703 35.2254 22.2412 35.5788 22.3787 35.9081C22.5163 36.2376 22.718 36.5364 22.972 36.7872C24.0411 37.8563 25.7405 37.8563 26.8096 36.7872L36.6507 26.9463C36.9047 26.6926 37.1064 26.3914 37.2439 26.0598C37.3814 25.7281 37.4524 25.3727 37.4524 25.0137C37.4524 24.6547 37.3814 24.2992 37.2439 23.9676C37.1064 23.6359 36.9047 23.3347 36.6507 23.0812L26.8096 13.2127C26.5588 12.9587 26.26 12.7571 25.9305 12.6195C25.6012 12.4819 25.2478 12.411 24.8908 12.411C24.5338 12.411 24.1804 12.4819 23.8511 12.6195C23.5216 12.7571 23.2228 12.9587 22.972 13.2127ZM49.5618 44.1885H30.3733C28.8655 44.1885 27.632 45.4221 27.632 46.9298C27.632 48.4375 28.8655 49.671 30.3733 49.671H49.5618C52.5772 49.671 55.0443 47.2039 55.0443 44.1885V5.81138C55.0443 2.79602 52.5772 0.328918 49.5618 0.328918H30.3733C28.8655 0.328918 27.632 1.56247 27.632 3.07014C27.632 4.57783 28.8655 5.81138 30.3733 5.81138H49.5618V44.1885Z" fill="#BDBDBD"/>
</g>
<defs>
<clipPath id="clip0_220_11">
<rect width="55.2632" height="50" fill="white"/>
</clipPath>
</defs>
</svg>
