<svg width="50" height="50" viewBox="0 0 50 50" fill="none" xmlns="http://www.w3.org/2000/svg">
<path d="M44.19 40.9461C46.7542 37.8609 48.5376 34.2035 49.3894 30.2833C50.2412 26.3631 50.1363 22.2953 49.0835 18.4242C48.0307 14.5531 46.0611 10.9926 43.3412 8.04367C40.6213 5.09478 37.2312 2.84436 33.4576 1.48277C29.6841 0.121186 25.6381 -0.311509 21.6619 0.221291C17.6858 0.754091 13.8964 2.23671 10.6144 4.54373C7.33247 6.85076 4.65441 9.91431 2.80683 13.4752C0.959251 17.0361 -0.00350426 20.9897 9.58406e-06 25.0014C0.00135797 30.8332 2.05648 36.4783 5.80475 40.9461L5.76904 40.9765C5.89403 41.1264 6.03687 41.255 6.16543 41.4032C6.32612 41.5871 6.49932 41.7603 6.66537 41.9389C7.16532 42.4817 7.67955 43.003 8.21878 43.4923C8.38305 43.6422 8.55267 43.7815 8.71873 43.9244C9.29009 44.4172 9.87753 44.885 10.4864 45.3206C10.565 45.3742 10.6364 45.4438 10.7149 45.4992V45.4778C14.8968 48.4206 19.8856 50 24.9991 50C30.1127 50 35.1015 48.4206 39.2833 45.4778V45.4992C39.3619 45.4438 39.4315 45.3742 39.5119 45.3206C40.119 44.8832 40.7082 44.4172 41.2796 43.9244C41.4456 43.7815 41.6152 43.6405 41.7795 43.4923C42.3187 43.0012 42.833 42.4817 43.3329 41.9389C43.499 41.7603 43.6704 41.5871 43.8329 41.4032C43.9596 41.255 44.1043 41.1264 44.2292 40.9747L44.19 40.9461ZM24.9974 10.7172C26.5865 10.7172 28.14 11.1884 29.4613 12.0713C30.7826 12.9542 31.8125 14.209 32.4206 15.6772C33.0287 17.1454 33.1879 18.7609 32.8778 20.3196C32.5678 21.8782 31.8026 23.3098 30.6789 24.4335C29.5552 25.5572 28.1235 26.3225 26.5649 26.6325C25.0063 26.9425 23.3907 26.7834 21.9225 26.1753C20.4544 25.5671 19.1995 24.5373 18.3166 23.216C17.4337 21.8946 16.9625 20.3412 16.9625 18.752C16.9625 16.6211 17.809 14.5774 19.3159 13.0705C20.8227 11.5637 22.8664 10.7172 24.9974 10.7172ZM10.7257 40.9461C10.7566 38.6017 11.7094 36.3637 13.3778 34.7163C15.0462 33.0689 17.2961 32.1447 19.6408 32.1435H30.3539C32.6986 32.1447 34.9485 33.0689 36.6169 34.7163C38.2853 36.3637 39.2381 38.6017 39.2691 40.9461C35.3531 44.4749 30.2687 46.4278 24.9974 46.4278C19.726 46.4278 14.6416 44.4749 10.7257 40.9461Z" fill="#BDBDBD"/>
</svg>
