<svg width="49" height="50" viewBox="0 0 49 50" fill="none" xmlns="http://www.w3.org/2000/svg">
<path d="M29.0511 50H19.6761C19.0511 50 18.5095 49.7917 18.0511 49.375C17.5928 48.9583 17.322 48.4375 17.2386 47.8125L16.4886 42C15.947 41.7917 15.4361 41.5417 14.9561 41.25C14.4761 40.9583 14.0078 40.6458 13.5511 40.3125L8.11364 42.5625C7.5303 42.7708 6.94697 42.7917 6.36364 42.625C5.7803 42.4583 5.32197 42.1042 4.98864 41.5625L0.363636 33.5C0.030303 32.9583 -0.0738636 32.375 0.0511364 31.75C0.176136 31.125 0.488636 30.625 0.988636 30.25L5.67614 26.6875C5.63447 26.3958 5.61364 26.1142 5.61364 25.8425V24.1575C5.61364 23.8858 5.63447 23.6042 5.67614 23.3125L0.988636 19.75C0.488636 19.375 0.176136 18.875 0.0511364 18.25C-0.0738636 17.625 0.030303 17.0417 0.363636 16.5L4.98864 8.4375C5.2803 7.85417 5.7278 7.48917 6.33114 7.3425C6.93447 7.19583 7.52864 7.2275 8.11364 7.4375L13.5511 9.6875C14.0095 9.35417 14.4886 9.04167 14.9886 8.75C15.4886 8.45833 15.9886 8.20833 16.4886 8L17.2386 2.1875C17.322 1.5625 17.5928 1.04167 18.0511 0.625C18.5095 0.208333 19.0511 0 19.6761 0H29.0511C29.6761 0 30.2178 0.208333 30.6761 0.625C31.1345 1.04167 31.4053 1.5625 31.4886 2.1875L32.2386 8C32.7803 8.20833 33.2911 8.45833 33.7711 8.75C34.2511 9.04167 34.7195 9.35417 35.1761 9.6875L40.6136 7.4375C41.197 7.22917 41.7803 7.20833 42.3636 7.375C42.947 7.54167 43.4053 7.89583 43.7386 8.4375L48.3636 16.5C48.697 17.0417 48.8011 17.625 48.6761 18.25C48.5511 18.875 48.2386 19.375 47.7386 19.75L43.0511 23.3125C43.0928 23.6042 43.1136 23.8858 43.1136 24.1575V25.8425C43.1136 26.1142 43.072 26.3958 42.9886 26.6875L47.6761 30.25C48.1761 30.625 48.4886 31.125 48.6136 31.75C48.7386 32.375 48.6345 32.9583 48.3011 33.5L43.6761 41.5C43.3428 42.0417 42.8736 42.4067 42.2686 42.595C41.6636 42.7833 41.0703 42.7725 40.4886 42.5625L35.1761 40.3125C34.7178 40.6458 34.2386 40.9583 33.7386 41.25C33.2386 41.5417 32.7386 41.7917 32.2386 42L31.4886 47.8125C31.4053 48.4375 31.1345 48.9583 30.6761 49.375C30.2178 49.7917 29.6761 50 29.0511 50ZM24.4886 33.75C26.9053 33.75 28.9678 32.8958 30.6761 31.1875C32.3845 29.4792 33.2386 27.4167 33.2386 25C33.2386 22.5833 32.3845 20.5208 30.6761 18.8125C28.9678 17.1042 26.9053 16.25 24.4886 16.25C22.0303 16.25 19.957 17.1042 18.2686 18.8125C16.5803 20.5208 15.737 22.5833 15.7386 25C15.7386 27.4167 16.582 29.4792 18.2686 31.1875C19.9553 32.8958 22.0286 33.75 24.4886 33.75Z" fill="white"/>
</svg>
